<svg xmlns="http://www.w3.org/2000/svg" version="1.1" viewBox="0 0 314.27 405.35" width="32" height="41">
 <path d="m0 0v314.29h98.864l58.259 91.058 58.269-91.058h98.874v-314.29z" fill="#1976D2" fill-opacity="1"/>
 <path d="m149.13 77.389v21.623c21.599 0 14.346 7.2499 28.749 7.2499h7.2499v-21.625h-7.2499c-14.399 0-7.1496-7.2499-28.749-7.2499zm-56.001 39.249c-2.208 0-4 1.7918-4 3.9998v12h135.99v-12c0-2.2081-1.7879-3.9998-3.9999-3.9998zm-31.999 23.999c-2.2079 0-4 1.7881-4 3.9999v83.999c0 2.2123 1.7919 4 4 4h192c2.2119 0 4-1.7877 4-4v-83.999c0-2.2116-1.788-3.9999-4-3.9999zm20 20h12v20h-12zm28 0h12v20h-12zm28 0h12v20h-12zm28 0h12v20h-12zm28 0h12v20h-12zm28 0h12v20h-12zm-140 31.999h12v20h-12zm28 0h12v20h-12zm28 0h12v20h-12zm28 0h12v20h-12zm28 0h12v20h-12zm28 0h12v20h-12z" fill="#F5F5F5" stroke-width="3.9999"/>
</svg>