<svg xmlns="http://www.w3.org/2000/svg" version="1.1" viewBox="0 0 314.27 405.35" width="32" height="41">
 <path d="m0 0v314.29h98.864l58.259 91.058 58.269-91.058h98.874v-314.29z" fill="#1976D2" fill-opacity="1"/>
 <g transform="matrix(.34325 0 0 .34325 57.13 54.565)" fill="#F5F5F5">
  <g id="Layer_1_21_" fill="#F5F5F5">
   <path d="m518.29 545.7-85.425-155.55c24.225-3.825 42.074-25.5 42.074-49.726v-229.5c0-61.199-49.725-110.92-110.92-110.92h-145.35c-61.2 0-112.2 49.725-112.2 112.2v228.22c0 25.5 17.85 45.9 42.075 49.726l-84.15 155.55c-6.375 12.75-2.55 28.05 10.2 34.425 3.825 2.55 7.65 2.55 11.475 2.55 8.925 0 17.85-5.1 21.675-12.75l7.65-12.75h351.9l7.649 12.75c5.101 8.925 12.75 12.75 21.676 12.75 3.824 0 7.649-1.274 11.475-2.55 12.75-6.375 16.576-21.675 10.201-34.425zm-119.85-114.75h-214.2l21.675-39.525h170.85zm-3.824-85.425c-20.4 0-36.976-16.575-36.976-36.976 0-20.4 16.575-36.975 36.976-36.975 20.399 0 36.975 16.575 36.975 36.975-1e-3 19.126-16.576 36.976-36.975 36.976zm-243.53-219.3c0-39.525 31.875-71.4 70.125-71.4h138.98c38.25 0 71.4 31.875 71.4 71.4v61.2c0 14.025-11.475 24.225-25.5 24.225h-229.5c-14.025 0-24.225-11.475-24.225-24.225l-1.275-61.2zm36.975 144.08c20.4 0 36.975 16.575 36.975 36.976 0 20.399-16.575 36.975-36.975 36.975s-36.975-16.575-36.975-36.975c0-20.401 16.576-36.976 36.975-36.976zm-52.274 248.62 28.05-49.725h255l28.05 49.725z" fill="#F5F5F5"/>
  </g>
 </g>
</svg>