<svg xmlns="http://www.w3.org/2000/svg" version="1.1" viewBox="0 0 314.27 405.35" width="32" height="41">
 <path d="m0 0v314.29h98.864l58.259 91.058 58.269-91.058h98.874v-314.29z" fill="#D32F2F" fill-opacity="1"/>
 <g transform="matrix(10.83 0 0 10.83 57.133 54.205)" fill="#F5F5F5">
  <path d="m17.109 5.454c-0.242-0.289-0.673-0.327-0.962-0.086l-1.894 1.591-0.871-2.158c-0.031-0.081-0.078-0.149-0.132-0.209-0.178-0.396-0.487-0.736-0.913-0.933-0.185-0.084-0.376-0.129-0.567-0.151-0.042-0.022-0.08-0.051-0.128-0.066l-3.333-0.929c-0.187-0.051-0.375-0.018-0.529 0.072-0.183 0.062-0.34 0.195-0.415 0.388l-1.255 3.227c-0.136 0.351 0.038 0.747 0.39 0.885 0.35 0.136 0.747-0.039 0.884-0.391l1.06-2.725 1.518 0.422c-0.037 0.06-0.077 0.116-0.107 0.18l-1.946 4.218c-0.028 0.062-0.043 0.125-0.063 0.189l-2.365 3.965-3.958 1.324c-0.448 0.335-0.543 0.966-0.212 1.414 0.333 0.449 0.966 0.544 1.413 0.213l4.05-1.395c0.124-0.09 0.214-0.208 0.282-0.335 0.051-0.054 0.109-0.097 0.148-0.164l1.41-2.364 2.503 2.133-2.678 3.018c-0.369 0.416-0.332 1.057 0.086 1.425 0.417 0.371 1.056 0.332 1.427-0.086l3.342-3.765c0.104-0.116 0.166-0.25 0.208-0.39 0.025-0.076 0.025-0.155 0.031-0.234 0-0.04 0.015-0.076 0.012-0.113-9e-3 -0.276-0.121-0.544-0.347-0.735l-2.303-1.964c0.166-0.158 0.307-0.346 0.409-0.567l1.492-3.231 0.478 1.273c0.02 0.113 0.058 0.224 0.138 0.317 0.072 0.086 0.164 0.143 0.262 0.183 0.01 5e-3 0.022 6e-3 0.034 9e-3 0.062 0.022 0.125 0.043 0.19 0.046 0.077 7e-3 0.155-3e-3 0.234-0.025 2e-3 -1e-3 3e-3 -1e-3 3e-3 -1e-3 0.021-5e-3 0.042-1e-3 0.063-0.01 0.111-0.042 0.196-0.113 0.269-0.196l2.718-2.307c0.289-0.243 0.167-0.673-0.076-0.962z" fill="#F5F5F5"/>
  <circle cx="13.671" cy="1.905" r="1.905"></circle>
 </g>
</svg>