<svg xmlns="http://www.w3.org/2000/svg" version="1.1" viewBox="0 0 314.27 405.35" width="32" height="41">
 <path d="m0 0v314.29h98.864l58.259 91.058 58.269-91.058h98.874v-314.29z" fill="#1976D2" fill-opacity="1"/>
 <path d="m252.8 125.02h-14.667c-1.1177 0-2.1914 0.44636-2.9977 1.2439l-3.1314 3.0971c-5.277-12.61-12.848-25.079-23.077-37.989-5.5293-6.9748-13.705-10.975-22.433-10.975h-58.728c-8.7291 0-16.906 4.0005-22.431 10.975-10.549 13.315-17.97 25.485-23.124 37.943l-3.0844-3.0514c-0.80641-0.79805-1.8804-1.2438-2.9976-1.2438h-14.667c-2.393 0-4.3322 2.0026-4.3322 4.4727v10.355c0 2.361 1.778 4.3154 4.0598 4.4644l15.076 0.98031c-2.2779 6.8729-4.0566 17.114-4.0566 31.558 0 12.533 2.424 20.77 6.6429 26.101v24.128c0 2.0686 1.6245 3.7459 3.6289 3.7459h16.688c2.0043 0 3.629-1.6773 3.629-3.7459v-14.983h108.66v14.983c0 2.0686 1.625 3.7459 3.6284 3.7459h16.688c2.0044 0 3.6293-1.6773 3.6293-3.7459v-24.128c4.218-5.3322 6.6429-13.569 6.6429-26.101 0-14.444-1.7788-24.685-4.0567-31.558l15.076-0.98031c2.2813-0.1494 4.0593-2.1032 4.0593-4.4644v-10.355c0-2.4703-1.9386-4.4727-4.3316-4.4727zm-135.08-23.19c2.4757-3.125 6.1386-4.9183 10.048-4.9183h58.728c3.9093 0 7.5738 1.7933 10.049 4.9183 7.1548 9.0308 12.806 17.674 17.173 26.283l-113.27 0.0186c4.2708-8.4175 9.9532-17.068 17.272-26.304zm-12.343 91.942c-8.3052 0-15.039-2.801-15.039-9.596 0-6.7948 2.4432-12.305 10.75-12.305 8.3066 0 19.328 5.5106 19.328 12.305 0 6.7948-6.7332 9.596-15.038 9.596zm67.519-1.4156h-31.527c-4.7532 0-8.6196-3.9925-8.6196-8.8997 0-1.3766 1.081-2.4929 2.4147-2.4929h43.938c1.3338 0 2.4138 1.1164 2.4138 2.4929 0 4.9075-3.8664 8.8997-8.6196 8.8997zm35.991 1.4156c-8.3069 0-15.039-2.801-15.039-9.596 0-6.7948 11.023-12.305 19.328-12.305 8.3058 0 10.749 5.5106 10.749 12.305 0 6.7948-6.7321 9.596-15.038 9.596z" fill="#F5F5F5" stroke-width=".47065"/>
</svg>