<svg xmlns="http://www.w3.org/2000/svg" version="1.1" viewBox="0 0 314.27 405.35" width="32" height="41">
 <path d="m0 0v314.29h98.864l58.259 91.058 58.269-91.058h98.874v-314.29z" fill="#1976D2" fill-opacity="1"/>
 <path d="m244.87 81.214c2.7222-9.1329 2.213-16.172-1.5344-21.122-4.4252-4.1866-10.723-4.7554-18.894-1.7164-8.1699 3.0446-15.49 8.1815-21.959 15.411l-20.423 22.834-84.887-22.691c-1.362-0.4768-2.6381-0.096141-3.829 1.1406l-16.341 18.267c-0.93493 1.0478-1.3193 2.332-1.1483 3.8542 0.25566 1.524 0.97895 2.6644 2.1704 3.4258l64.845 39.816-33.063 36.963-24.766-7.5622c-0.16981-0.0942-0.50946-0.14368-1.0203-0.14368-1.192 0-2.1699 0.42735-2.9363 1.2846l-12.253 13.842c-0.85095 1.1391-1.2334 2.3293-1.1481 3.5651 0.16888 1.5221 0.72219 2.6166 1.6591 3.2839l32.167 26.97 24.125 35.962c0.76604 1.0486 1.7878 1.6641 3.0646 1.8574h0.25567c1.1917 0 2.1696-0.42734 2.9362-1.2825l12.252-13.698c1.1062-1.334 1.4469-2.8086 1.0222-4.4254l-6.7663-27.686 33.062-36.966 35.617 72.505c0.51039 1.2372 1.4031 1.9977 2.6805 2.2835 0.2538 0.0961 0.55238 0.14182 0.8939 0.14182 1.0189 0 1.8285-0.28552 2.4238-0.85562l16.344-13.7c1.4441-1.3313 1.9549-2.8996 1.5318-4.7077l-20.424-99.326 20.553-22.976c6.4657-7.2335 11.061-15.416 13.785-24.55z" fill="#F5F5F5" stroke-width=".47275"/>
</svg>